<?xml version="1.0" encoding="UTF-8" standalone="no"?>
<!-- Created with Inkscape (http://www.inkscape.org/) -->

<svg
   xmlns:dc="http://purl.org/dc/elements/1.1/"
   xmlns:cc="http://creativecommons.org/ns#"
   xmlns:rdf="http://www.w3.org/1999/02/22-rdf-syntax-ns#"
   xmlns:svg="http://www.w3.org/2000/svg"
   xmlns="http://www.w3.org/2000/svg"
   xmlns:sodipodi="http://sodipodi.sourceforge.net/DTD/sodipodi-0.dtd"
   xmlns:inkscape="http://www.inkscape.org/namespaces/inkscape"
   version="1.1"
   width="744.09448"
   height="1052.3622"
   id="svg3651"
   inkscape:version="0.48.5 r10040"
   sodipodi:docname="failuredialog.svg">
  <sodipodi:namedview
     pagecolor="#ffffff"
     bordercolor="#666666"
     borderopacity="1"
     objecttolerance="10"
     gridtolerance="10"
     guidetolerance="10"
     inkscape:pageopacity="0"
     inkscape:pageshadow="2"
     inkscape:window-width="1440"
     inkscape:window-height="836"
     id="namedview8"
     showgrid="false"
     inkscape:zoom="0.89702957"
     inkscape:cx="556.46173"
     inkscape:cy="887.1134"
     inkscape:window-x="0"
     inkscape:window-y="21"
     inkscape:window-maximized="1"
     inkscape:current-layer="layer1" />
  <defs
     id="defs3653" />
  <metadata
     id="metadata3656">
    <rdf:RDF>
      <cc:Work
         rdf:about="">
        <dc:format>image/svg+xml</dc:format>
        <dc:type
           rdf:resource="http://purl.org/dc/dcmitype/StillImage" />
        <dc:title />
      </cc:Work>
    </rdf:RDF>
  </metadata>
  <g
     id="layer1"
     transform="matrix(1.019268,0,0,1,-0.38535967,0)">
    <rect
       style="fill:#ffffff;fill-opacity:1"
       id="rect3059"
       width="755.82794"
       height="497.19653"
       x="-2.2295809"
       y="-1.1147947"
       transform="matrix(0.98109624,0,0,1,0.37807492,0)" />
    <rect
       style="fill:#0000ff;fill-opacity:1"
       id="rect2992"
       width="33.154095"
       height="205.24554"
       x="271.17838"
       y="-169.70955"
       transform="matrix(0.67157115,0.74094007,-0.72803089,0.68554432,0,0)" />
    <rect
       width="8.8887863"
       height="415.54086"
       x="20"
       y="33.476974"
       id="rect3659"
       style="fill:#123b00;fill-opacity:1" />
    <rect
       width="8.8691587"
       height="417.48975"
       x="705.41656"
       y="32.015289"
       id="rect5872"
       style="fill:#123b00;fill-opacity:1" />
    <rect
       style="fill:#123b00;fill-opacity:1"
       id="rect2987"
       width="685.76038"
       height="5.5739522"
       x="25.533558"
       y="444.80139" />
    <path
       sodipodi:type="arc"
       style="fill:#0000ff;fill-opacity:1"
       id="path2986"
       sodipodi:cx="525.62372"
       sodipodi:cy="18.394037"
       sodipodi:rx="162.20201"
       sodipodi:ry="164.43159"
       d="m 687.82573,18.394037 a 162.20201,164.43159 0 1 1 -324.40402,0 162.20201,164.43159 0 1 1 324.40402,0 z"
       transform="matrix(0.98109624,0,0,1.0372881,-141.8051,3.2158872)" />
    <rect
       style="fill:#ffffff;fill-opacity:1"
       id="rect2988"
       width="522.79657"
       height="229.64684"
       x="115.21833"
       y="-163.87421" />
    <rect
       style="fill:#0000ff;fill-opacity:1"
       id="rect2992-9"
       width="33.154095"
       height="205.24554"
       x="-239.73128"
       y="390.61511"
       transform="matrix(-0.67157115,0.74094007,0.72803089,0.68554432,0,0)"
       inkscape:transform-center-x="102.56072"
       inkscape:transform-center-y="96.986769" />
    <rect
       style="fill:#0000ff;fill-opacity:1"
       id="rect3012"
       width="16.40575"
       height="102.56072"
       x="367.86688"
       y="180.59605" />
    <path
       sodipodi:type="arc"
       style="fill:#0000ff;fill-opacity:1"
       id="path3014"
       sodipodi:cx="370.11044"
       sodipodi:cy="294.86206"
       sodipodi:rx="16.721857"
       sodipodi:ry="41.804642"
       d="m 386.8323,294.86206 a 16.721857,41.804642 0 1 1 -33.44371,0 16.721857,41.804642 0 1 1 33.44371,0 z"
       transform="matrix(0.98109624,0,0,1,13.502675,-10.033114)" />
    <path
       sodipodi:type="arc"
       style="fill:#0000ff;fill-opacity:1"
       id="path3016"
       sodipodi:cx="142.13579"
       sodipodi:cy="253.61482"
       sodipodi:rx="23.967995"
       sodipodi:ry="62.985661"
       d="m 166.10378,253.61482 a 23.967995,62.985661 0 1 1 -47.93599,0 23.967995,62.985661 0 1 1 47.93599,0 z"
       transform="matrix(0.98109624,0,0,1,1.4717916,-17.836647)" />
    <path
       sodipodi:type="arc"
       style="fill:#0000ff;fill-opacity:1"
       id="path3016-3"
       sodipodi:cx="142.13579"
       sodipodi:cy="253.61482"
       sodipodi:rx="23.967995"
       sodipodi:ry="62.985661"
       d="m 166.10378,253.61482 a 23.967995,62.985661 0 1 1 -47.93599,0 23.967995,62.985661 0 1 1 47.93599,0 z"
       transform="matrix(0.98109624,0,0,1,465.75453,-12.820089)" />
    <rect
       style="fill:#0000ff;fill-opacity:1"
       id="rect3039"
       width="99.216347"
       height="30.099342"
       x="253.05743"
       y="150.4967"
       transform="matrix(0.98109624,0,0,1,0.37807492,0)" />
    <rect
       style="fill:#0000ff;fill-opacity:1"
       id="rect3039-0"
       width="97.340782"
       height="30.099342"
       x="399.03781"
       y="146.59494" />
    <rect
       style="fill:#123b00;fill-opacity:1"
       id="rect2985"
       width="683.57294"
       height="4.4591618"
       x="27.720993"
       y="33.443714" />
  </g>
  <g
     inkscape:groupmode="layer"
     id="layer2"
     inkscape:label="Layer2" />
  <g
     inkscape:groupmode="layer"
     id="layer3"
     inkscape:label="Layer3" />
</svg>
