<?xml version="1.0" encoding="UTF-8" standalone="no"?>
<!-- Created with Inkscape (http://www.inkscape.org/) -->

<svg
   xmlns:dc="http://purl.org/dc/elements/1.1/"
   xmlns:cc="http://creativecommons.org/ns#"
   xmlns:rdf="http://www.w3.org/1999/02/22-rdf-syntax-ns#"
   xmlns:svg="http://www.w3.org/2000/svg"
   xmlns="http://www.w3.org/2000/svg"
   xmlns:sodipodi="http://sodipodi.sourceforge.net/DTD/sodipodi-0.dtd"
   xmlns:inkscape="http://www.inkscape.org/namespaces/inkscape"
   version="1.1"
   width="744.09448"
   height="1052.3622"
   id="svg3651"
   inkscape:version="0.48.5 r10040"
   sodipodi:docname="failuredialog.svg">
  <sodipodi:namedview
     pagecolor="#ffffff"
     bordercolor="#666666"
     borderopacity="1"
     objecttolerance="10"
     gridtolerance="10"
     guidetolerance="10"
     inkscape:pageopacity="0"
     inkscape:pageshadow="2"
     inkscape:window-width="1440"
     inkscape:window-height="836"
     id="namedview8"
     showgrid="false"
     inkscape:zoom="1.2685914"
     inkscape:cx="516.17059"
     inkscape:cy="866.15688"
     inkscape:window-x="0"
     inkscape:window-y="21"
     inkscape:window-maximized="1"
     inkscape:current-layer="layer1" />
  <defs
     id="defs3653" />
  <metadata
     id="metadata3656">
    <rdf:RDF>
      <cc:Work
         rdf:about="">
        <dc:format>image/svg+xml</dc:format>
        <dc:type
           rdf:resource="http://purl.org/dc/dcmitype/StillImage" />
        <dc:title />
      </cc:Work>
    </rdf:RDF>
  </metadata>
  <g
     id="layer1"
     transform="matrix(1.019268,0,0,1,-0.38535967,0)">
    <rect
       style="fill:#ffffff;fill-opacity:1"
       id="rect3059"
       width="755.82794"
       height="497.19653"
       x="-2.2295809"
       y="-1.1147947"
       transform="matrix(0.98109624,0,0,1,0.37807492,0)" />
    <rect
       style="fill:#0000ff;fill-opacity:1"
       id="rect2992"
       width="33.154095"
       height="205.24554"
       x="271.17838"
       y="-169.70955"
       transform="matrix(0.67157115,0.74094007,-0.72803089,0.68554432,0,0)" />
    <rect
       width="8.8887863"
       height="416.92413"
       x="20"
       y="33.452339"
       id="rect3659"
       style="fill:#123b00;fill-opacity:1" />
    <rect
       width="8.8691587"
       height="416.98117"
       x="705.41656"
       y="33.394772"
       id="rect5872"
       style="fill:#123b00;fill-opacity:1" />
    <rect
       style="fill:#123b00;fill-opacity:1"
       id="rect2987"
       width="685.76038"
       height="5.5739522"
       x="25.533558"
       y="444.80139" />
    <path
       sodipodi:type="arc"
       style="fill:#0000ff;fill-opacity:1"
       id="path2986"
       sodipodi:cx="525.62372"
       sodipodi:cy="18.394037"
       sodipodi:rx="162.20201"
       sodipodi:ry="164.43159"
       d="m 687.82573,18.394037 c 0,90.813063 -72.62031,164.431593 -162.20201,164.431593 -89.5817,0 -162.20201,-73.61853 -162.20201,-164.431593 0,-90.813062 72.62031,-164.431597 162.20201,-164.431597 89.5817,0 162.20201,73.618535 162.20201,164.431597 z"
       transform="matrix(0.98109624,0,0,1.0372881,-141.8051,3.2158872)" />
    <rect
       style="fill:#ffffff;fill-opacity:1"
       id="rect2988"
       width="522.79657"
       height="229.64684"
       x="115.21833"
       y="-163.87421" />
    <rect
       style="fill:#0000ff;fill-opacity:1"
       id="rect2992-9"
       width="33.154095"
       height="205.24554"
       x="-245.42749"
       y="386.42291"
       transform="matrix(-0.67157115,0.74094007,0.72803089,0.68554432,0,0)"
       inkscape:transform-center-x="102.56072"
       inkscape:transform-center-y="96.986769" />
    <rect
       style="fill:#0000ff;fill-opacity:1"
       id="rect3012"
       width="16.40575"
       height="102.56072"
       x="367.86688"
       y="180.59605" />
    <rect
       style="fill:#0000ff;fill-opacity:1"
       id="rect3039"
       width="257.42932"
       height="30.099342"
       x="248.65178"
       y="150.4967" />
    <rect
       style="fill:#0000ff;fill-opacity:1"
       id="rect2999"
       width="40.215473"
       height="83.557243"
       x="124.118"
       y="193.14146" />
    <path
       sodipodi:type="arc"
       style="fill:#0000ff;fill-opacity:1"
       id="path3001"
       sodipodi:cx="133.14778"
       sodipodi:cy="178.36647"
       sodipodi:rx="14.004555"
       sodipodi:ry="14.770973"
       d="m 147.15234,178.36647 a 14.004555,14.770973 0 1 1 -28.00911,0 14.004555,14.770973 0 1 1 28.00911,0 z"
       transform="matrix(1.4350363,0,0,1.4611771,-46.87008,-67.053464)" />
    <path
       sodipodi:type="arc"
       style="fill:#0000ff;fill-opacity:1"
       id="path3001-6"
       sodipodi:cx="133.14778"
       sodipodi:cy="178.36647"
       sodipodi:rx="14.004555"
       sodipodi:ry="14.770973"
       d="m 147.15234,178.36647 a 14.004555,14.770973 0 1 1 -28.00911,0 14.004555,14.770973 0 1 1 28.00911,0 z"
       transform="matrix(1.4350363,0,0,1.4611771,-46.846166,15.778103)" />
    <rect
       style="fill:#0000ff;fill-opacity:1"
       id="rect3021"
       width="21.737619"
       height="28.427156"
       x="156.77957"
       y="221.2859" />
    <rect
       style="fill:#0000ff;fill-opacity:1"
       id="rect2999-6"
       width="40.215473"
       height="83.557243"
       x="590.57086"
       y="190.58794" />
    <path
       sodipodi:type="arc"
       style="fill:#0000ff;fill-opacity:1"
       id="path3001-2"
       sodipodi:cx="133.14778"
       sodipodi:cy="178.36647"
       sodipodi:rx="14.004555"
       sodipodi:ry="14.770973"
       d="m 147.15234,178.36647 a 14.004555,14.770973 0 1 1 -28.00911,0 14.004555,14.770973 0 1 1 28.00911,0 z"
       transform="matrix(1.4350363,0,0,1.4611771,419.5828,-69.606974)" />
    <path
       sodipodi:type="arc"
       style="fill:#0000ff;fill-opacity:1"
       id="path3001-6-9"
       sodipodi:cx="133.14778"
       sodipodi:cy="178.36647"
       sodipodi:rx="14.004555"
       sodipodi:ry="14.770973"
       d="m 147.15234,178.36647 a 14.004555,14.770973 0 1 1 -28.00911,0 14.004555,14.770973 0 1 1 28.00911,0 z"
       transform="matrix(1.4350363,0,0,1.4611771,419.60671,13.224583)" />
    <rect
       style="fill:#0000ff;fill-opacity:1"
       id="rect3021-9"
       width="21.157589"
       height="21.234138"
       x="573.177"
       y="226.99921" />
    <rect
       style="fill:#0000ff;fill-opacity:1"
       id="rect2999-6-4"
       width="35.295368"
       height="60.639233"
       x="358.70132"
       y="241.08305" />
    <path
       sodipodi:type="arc"
       style="fill:#0000ff;fill-opacity:1"
       id="path3001-2-7"
       sodipodi:cx="133.14778"
       sodipodi:cy="178.36647"
       sodipodi:rx="14.004555"
       sodipodi:ry="14.770973"
       d="m 147.15234,178.36647 a 14.004555,14.770973 0 1 1 -28.00911,0 14.004555,14.770973 0 1 1 28.00911,0 z"
       transform="matrix(1.2594688,0,0,1.0604067,208.63254,52.254185)" />
    <path
       sodipodi:type="arc"
       style="fill:#0000ff;fill-opacity:1"
       id="path3001-6-9-2"
       sodipodi:cx="133.14778"
       sodipodi:cy="178.36647"
       sodipodi:rx="14.004555"
       sodipodi:ry="14.770973"
       d="m 147.15234,178.36647 a 14.004555,14.770973 0 1 1 -28.00911,0 14.004555,14.770973 0 1 1 28.00911,0 z"
       transform="matrix(1.2594688,0,0,1.0604067,208.65353,112.36676)" />
    <path
       sodipodi:type="arc"
       style="fill:#ffffff;fill-opacity:1"
       id="path3093"
       sodipodi:cx="309.79242"
       sodipodi:cy="68.593872"
       sodipodi:rx="75.674484"
       sodipodi:ry="17.34207"
       d="m 385.4669,68.593872 a 75.674484,17.34207 0 1 1 -151.34896,0 75.674484,17.34207 0 1 1 151.34896,0 z"
       transform="matrix(1.982632,0,0,8.3409091,-239.51303,-541.77275)" />
    <rect
       style="fill:#123b00;fill-opacity:1"
       id="rect2985"
       width="683.57294"
       height="4.4591618"
       x="27.720993"
       y="33.443714" />
  </g>
  <g
     inkscape:groupmode="layer"
     id="layer2"
     inkscape:label="Layer2" />
  <g
     inkscape:groupmode="layer"
     id="layer3"
     inkscape:label="Layer3" />
</svg>
