<?xml version="1.0" encoding="UTF-8" standalone="no"?>
<!-- Created with Inkscape (http://www.inkscape.org/) -->

<svg
   xmlns:dc="http://purl.org/dc/elements/1.1/"
   xmlns:cc="http://creativecommons.org/ns#"
   xmlns:rdf="http://www.w3.org/1999/02/22-rdf-syntax-ns#"
   xmlns:svg="http://www.w3.org/2000/svg"
   xmlns="http://www.w3.org/2000/svg"
   xmlns:sodipodi="http://sodipodi.sourceforge.net/DTD/sodipodi-0.dtd"
   xmlns:inkscape="http://www.inkscape.org/namespaces/inkscape"
   width="512"
   height="512"
   id="svg2"
   version="1.1"
   inkscape:version="0.48.4 r9939"
   sodipodi:docname="IFD_MapIcons.svg">
  <defs
     id="defs4" />
  <sodipodi:namedview
     id="base"
     pagecolor="#ffffff"
     bordercolor="#666666"
     borderopacity="1.0"
     inkscape:pageopacity="0.0"
     inkscape:pageshadow="2"
     inkscape:zoom="1"
     inkscape:cx="216.79342"
     inkscape:cy="327.71813"
     inkscape:document-units="px"
     inkscape:current-layer="layer1"
     showgrid="true"
     inkscape:snap-object-midpoints="false"
     inkscape:window-width="1920"
     inkscape:window-height="1025"
     inkscape:window-x="-2"
     inkscape:window-y="-3"
     inkscape:window-maximized="1"
     inkscape:snap-page="true"
     inkscape:snap-bbox="true"
     showguides="true"
     inkscape:guide-bbox="true"
     inkscape:bbox-nodes="true">
    <sodipodi:guide
       orientation="1,0"
       position="86,444.06306"
       id="guide4221" />
    <inkscape:grid
       type="xygrid"
       id="grid4225"
       empspacing="5"
       visible="true"
       enabled="true"
       snapvisiblegridlinesonly="true" />
    <sodipodi:guide
       orientation="0,1"
       position="53,444"
       id="guide3103" />
  </sodipodi:namedview>
  <metadata
     id="metadata7">
    <rdf:RDF>
      <cc:Work
         rdf:about="">
        <dc:format>image/svg+xml</dc:format>
        <dc:type
           rdf:resource="http://purl.org/dc/dcmitype/StillImage" />
        <dc:title />
      </cc:Work>
    </rdf:RDF>
  </metadata>
  <g
     inkscape:label="Ebene 1"
     inkscape:groupmode="layer"
     id="layer1">
    <path
       style="font-size:medium;font-style:normal;font-variant:normal;font-weight:normal;font-stretch:normal;text-indent:0;text-align:start;text-decoration:none;line-height:normal;letter-spacing:normal;word-spacing:normal;text-transform:none;direction:ltr;block-progression:tb;writing-mode:lr-tb;text-anchor:start;baseline-shift:baseline;color:#000000;fill:#ff00ff;fill-opacity:1;stroke:none;stroke-width:9.54473877;marker:none;visibility:visible;display:inline;overflow:visible;enable-background:accumulate;font-family:Sans;-inkscape-font-specification:Sans"
       d="m 46.891171,27 c -6.825897,0 -12.509335,5.582757 -12.509335,12.5 0,6.917262 5.683438,12.5 12.509335,12.5 6.825903,0 12.490665,-5.582738 12.490665,-12.5 0,-6.917243 -5.664762,-12.5 -12.490665,-12.5 z m 0,5.848616 c 3.840293,0 6.796117,2.990873 6.796117,6.651384 0,3.660511 -2.955824,6.651384 -6.796117,6.651384 -3.840292,0 -6.814786,-2.990873 -6.814786,-6.651384 0,-3.660511 2.974494,-6.651384 6.814786,-6.651384 z"
       id="Airport_0000"
       inkscape:connector-curvature="0" />
    <path
       style="font-size:medium;font-style:normal;font-variant:normal;font-weight:normal;font-stretch:normal;text-indent:0;text-align:start;text-decoration:none;line-height:normal;letter-spacing:normal;word-spacing:normal;text-transform:none;direction:ltr;block-progression:tb;writing-mode:lr-tb;text-anchor:start;baseline-shift:baseline;color:#000000;fill:#ff00ff;fill-opacity:1;fill-rule:nonzero;stroke:none;stroke-width:9.54473877;marker:none;visibility:visible;display:inline;overflow:visible;enable-background:accumulate;font-family:Sans;-inkscape-font-specification:Sans"
       d="m 46.891171,93 c -6.825898,0 -12.509335,5.582757 -12.509335,12.5 0,6.91726 5.683437,12.5 12.509335,12.5 6.825903,0 12.490665,-5.58274 12.490665,-12.5 0,-6.917243 -5.664762,-12.5 -12.490663,-12.5 z"
       id="Airport_0100"
       inkscape:connector-curvature="0"
       sodipodi:nodetypes="sssss" />
    <path
       style="font-size:medium;font-style:normal;font-variant:normal;font-weight:normal;font-stretch:normal;text-indent:0;text-align:start;text-decoration:none;line-height:normal;letter-spacing:normal;word-spacing:normal;text-transform:none;direction:ltr;block-progression:tb;writing-mode:lr-tb;text-anchor:start;baseline-shift:baseline;color:#000000;fill:#ff00ff;fill-opacity:1;stroke:#000000;stroke-width:1;stroke-miterlimit:4;stroke-dasharray:none;marker:none;visibility:visible;display:inline;overflow:visible;enable-background:accumulate;font-family:Sans;-inkscape-font-specification:Sans"
       d="M 112.88184,20 C 102.19465,20 93.381838,28.716272 93.381838,39.50001 93.381838,50.283728 102.19465,59 112.88184,59 c 10.68718,0 19.5,-8.716272 19.5,-19.49999 0,-10.783738 -8.81282,-19.50001 -19.5,-19.50001 z m 0,5.939095 c 7.66535,0 13.71747,6.084301 13.71747,13.560915 0,7.476614 -6.05212,13.560895 -13.71747,13.560895 -7.66535,0 -13.749592,-6.084281 -13.749592,-13.560895 0,-7.476614 6.084242,-13.560915 13.749592,-13.560915 z"
       id="Airport_1000"
       inkscape:connector-curvature="0" />
    <path
       inkscape:connector-curvature="0"
       id="Airport_1100"
       d="m 112.88184,86 c -10.68718,0 -19.500002,8.71628 -19.500002,19.5 0,10.78372 8.812822,19.5 19.500002,19.5 10.68718,0 19.5,-8.71628 19.5,-19.5 0,-10.78372 -8.81282,-19.5 -19.5,-19.5 z"
       style="font-size:medium;font-style:normal;font-variant:normal;font-weight:normal;font-stretch:normal;text-indent:0;text-align:start;text-decoration:none;line-height:normal;letter-spacing:normal;word-spacing:normal;text-transform:none;direction:ltr;block-progression:tb;writing-mode:lr-tb;text-anchor:start;baseline-shift:baseline;color:#000000;fill:#ff00ff;fill-opacity:1;stroke:#000000;stroke-width:1;stroke-miterlimit:4;stroke-dasharray:none;marker:none;visibility:visible;display:inline;overflow:visible;enable-background:accumulate;font-family:Sans;-inkscape-font-specification:Sans"
       sodipodi:nodetypes="sssss" />
    <text
       xml:space="preserve"
       style="font-size:12px;font-style:normal;font-weight:normal;line-height:125%;letter-spacing:0px;word-spacing:0px;fill:#000000;fill-opacity:1;stroke:none;font-family:Sans"
       x="38.488281"
       y="11.830078"
       id="text3920"
       sodipodi:linespacing="125%"><tspan
         sodipodi:role="line"
         id="tspan3922"
         x="38.488281"
         y="11.830078">far</tspan></text>
    <text
       xml:space="preserve"
       style="font-size:12px;font-style:normal;font-weight:normal;line-height:125%;letter-spacing:0px;word-spacing:0px;fill:#000000;fill-opacity:1;stroke:none;font-family:Sans"
       x="168.76562"
       y="175.97363"
       id="text3924"
       sodipodi:linespacing="125%"><tspan
         sodipodi:role="line"
         id="tspan3926"
         x="168.76562"
         y="175.97363">soft</tspan></text>
    <text
       xml:space="preserve"
       style="font-size:12px;font-style:normal;font-weight:normal;line-height:125%;letter-spacing:0px;word-spacing:0px;fill:#000000;fill-opacity:1;stroke:none;font-family:Sans"
       x="166.43652"
       y="241.97363"
       id="text3928"
       sodipodi:linespacing="125%"><tspan
         sodipodi:role="line"
         x="166.43652"
         y="241.97363"
         id="tspan3932">hard</tspan></text>
    <text
       xml:space="preserve"
       style="font-size:12px;font-style:normal;font-weight:normal;line-height:125%;letter-spacing:0px;word-spacing:0px;fill:#000000;fill-opacity:1;stroke:none;font-family:Sans"
       x="311.47656"
       y="307.62793"
       id="text3944"
       sodipodi:linespacing="125%"><tspan
         sodipodi:role="line"
         x="311.47656"
         y="307.62793"
         id="tspan3172">center</tspan></text>
    <text
       xml:space="preserve"
       style="font-size:12px;font-style:normal;font-weight:normal;line-height:125%;letter-spacing:0px;word-spacing:0px;fill:#000000;fill-opacity:1;stroke:none;font-family:Sans"
       x="98.69043"
       y="11.830078"
       id="text3952"
       sodipodi:linespacing="125%"><tspan
         sodipodi:role="line"
         id="tspan3954"
         x="98.69043"
         y="11.830078">near</tspan></text>
    <text
       xml:space="preserve"
       style="font-size:12px;font-style:normal;font-weight:normal;line-height:125%;letter-spacing:0px;word-spacing:0px;fill:#000000;fill-opacity:1;stroke:none;font-family:Sans"
       x="173.76172"
       y="109.97363"
       id="text3928-0"
       sodipodi:linespacing="125%"><tspan
         sodipodi:role="line"
         x="173.76172"
         y="109.97363"
         id="tspan3932-1">hard</tspan></text>
    <text
       xml:space="preserve"
       style="font-size:12px;font-style:normal;font-weight:normal;line-height:125%;letter-spacing:0px;word-spacing:0px;fill:#000000;fill-opacity:1;stroke:none;font-family:Sans"
       x="168.76562"
       y="43.973633"
       id="text3924-6"
       sodipodi:linespacing="125%"><tspan
         sodipodi:role="line"
         id="tspan3926-1"
         x="168.76562"
         y="43.973633">soft</tspan></text>
    <g
       id="Icon_Test"
       transform="matrix(2,0,0,1.9047619,335,-1111.7851)">
      <path
         id="rect3105"
         d="m 65,587.36218 20,0 0,10.5 -20,0 z"
         style="color:#000000;fill:#00ff00;fill-opacity:1;fill-rule:nonzero;stroke:none;stroke-width:5;marker:none;visibility:visible;display:inline;overflow:visible;enable-background:accumulate"
         inkscape:connector-curvature="0" />
      <path
         id="rect3107"
         d="m 65,597.86218 10,0 0,10.5 -10,0 z"
         style="color:#000000;fill:#0000ff;fill-opacity:1;fill-rule:nonzero;stroke:none;stroke-width:5;marker:none;visibility:visible;display:inline;overflow:visible;enable-background:accumulate"
         inkscape:connector-curvature="0" />
      <path
         id="rect3109"
         d="m 75,597.86218 10,0 0,10.5 -10,0 z"
         style="color:#000000;fill:#800000;fill-opacity:1;fill-rule:nonzero;stroke:none;stroke-width:5;marker:none;visibility:visible;display:inline;overflow:visible;enable-background:accumulate"
         inkscape:connector-curvature="0" />
    </g>
    <path
       style="font-size:medium;font-style:normal;font-variant:normal;font-weight:normal;font-stretch:normal;text-indent:0;text-align:start;text-decoration:none;line-height:normal;letter-spacing:normal;word-spacing:normal;text-transform:none;direction:ltr;block-progression:tb;writing-mode:lr-tb;text-anchor:start;baseline-shift:baseline;color:#000000;fill:#ff00ff;fill-opacity:1;stroke:#000000;stroke-width:1;stroke-miterlimit:4;stroke-dasharray:none;marker:none;visibility:visible;display:inline;overflow:visible;enable-background:accumulate;font-family:Sans;-inkscape-font-specification:Sans"
       d="m 109.88184,146.5 0,5.75 c -8.31001,1.30149 -14.980062,7.88525 -16.281252,16.25 l -5.71875,0 0,6 5.71875,0 c 1.30119,8.36473 7.971242,14.9485 16.281252,16.25 l 0,5.75 6,0 0,-5.75 c 8.31002,-1.3015 14.98006,-7.88527 16.28125,-16.25 l 5.71875,0 0,-6 -5.71875,0 c -1.30119,-8.36475 -7.97123,-14.94851 -16.28125,-16.25 l 0,-5.75 -6,0 z m 3,11.4375 c 7.66536,0 13.71875,6.08589 13.71875,13.5625 0,7.4766 -6.05339,13.5625 -13.71875,13.5625 -7.66534,0 -13.750002,-6.0859 -13.750002,-13.5625 0,-7.47661 6.084662,-13.5625 13.750002,-13.5625 z"
       id="Airport_1010"
       inkscape:connector-curvature="0" />
    <path
       inkscape:connector-curvature="0"
       id="Airport_1110"
       d="m 109.88184,212.5 0,5.75 c -8.31001,1.30149 -14.980062,7.88525 -16.281252,16.25 l -5.71875,0 0,6 5.71875,0 c 1.30119,8.36473 7.971242,14.9485 16.281252,16.25 l 0,5.75 6,0 0,-5.75 c 8.31002,-1.3015 14.98006,-7.88527 16.28125,-16.25 l 5.71875,0 0,-6 -5.71875,0 c -1.30119,-8.36475 -7.97123,-14.94851 -16.28125,-16.25 l 0,-5.75 z"
       style="font-size:medium;font-style:normal;font-variant:normal;font-weight:normal;font-stretch:normal;text-indent:0;text-align:start;text-decoration:none;line-height:normal;letter-spacing:normal;word-spacing:normal;text-transform:none;direction:ltr;block-progression:tb;writing-mode:lr-tb;text-anchor:start;baseline-shift:baseline;color:#000000;fill:#ff00ff;fill-opacity:1;stroke:#000000;stroke-width:1;stroke-miterlimit:4;stroke-dasharray:none;marker:none;visibility:visible;display:inline;overflow:visible;enable-background:accumulate;font-family:Sans;-inkscape-font-specification:Sans"
       sodipodi:nodetypes="ccccccccccccccccc" />
    <path
       sodipodi:nodetypes="ccccccccccccccccc"
       style="font-size:medium;font-style:normal;font-variant:normal;font-weight:normal;font-stretch:normal;text-indent:0;text-align:start;text-decoration:none;line-height:normal;letter-spacing:normal;word-spacing:normal;text-transform:none;direction:ltr;block-progression:tb;writing-mode:lr-tb;text-anchor:start;baseline-shift:baseline;color:#000000;fill:#00ffff;fill-opacity:1;stroke:#000000;stroke-width:1;stroke-miterlimit:4;stroke-dasharray:none;marker:none;visibility:visible;display:inline;overflow:visible;enable-background:accumulate;font-family:Sans;-inkscape-font-specification:Sans"
       d="m 109.88184,344.5 0,5.75 c -8.31001,1.30149 -14.980062,7.88525 -16.281252,16.25 l -5.71875,0 0,6 5.71875,0 c 1.30119,8.36473 7.971242,14.94851 16.281252,16.25 l 0,5.75 6,0 0,-5.75 c 8.31002,-1.30149 14.98006,-7.88527 16.28125,-16.25 l 5.71875,0 0,-6 -5.71875,0 c -1.30119,-8.36475 -7.97123,-14.94851 -16.28125,-16.25 l 0,-5.75 z"
       id="Airport_1111"
       inkscape:connector-curvature="0" />
    <path
       style="font-size:medium;font-style:normal;font-variant:normal;font-weight:normal;font-stretch:normal;text-indent:0;text-align:start;text-decoration:none;line-height:normal;letter-spacing:normal;word-spacing:normal;text-transform:none;direction:ltr;block-progression:tb;writing-mode:lr-tb;text-anchor:start;baseline-shift:baseline;color:#000000;fill:#0000ff;fill-opacity:1;stroke:none;stroke-width:5;marker:none;visibility:visible;display:inline;overflow:visible;enable-background:accumulate;font-family:Sans;-inkscape-font-specification:Sans"
       d="m 35.631836,412 -11.25,20 11.25,20 22.5,0 11.25,-20 -11.25,-20 -22.5,0 z m 2.82787,5.04732 16.84426,0 8.42213,14.95268 -8.42213,14.95268 -16.84426,0 L 30.037576,432 l 8.42213,-14.95268 z m 8.42213,9.90536 c -2.71615,0 -4.91803,2.25977 -4.91803,5.04732 0,2.78755 2.20188,5.04732 4.91803,5.04732 2.71615,0 4.91803,-2.25977 4.91803,-5.04732 0,-2.78755 -2.20188,-5.04732 -4.91803,-5.04732 z"
       id="Navaid_VOR"
       inkscape:connector-curvature="0" />
    <path
       style="font-size:medium;font-style:normal;font-variant:normal;font-weight:normal;font-stretch:normal;text-indent:0;text-align:start;text-decoration:none;line-height:normal;letter-spacing:normal;word-spacing:normal;text-transform:none;direction:ltr;block-progression:tb;writing-mode:lr-tb;text-anchor:start;baseline-shift:baseline;color:#000000;fill:#0000ff;fill-opacity:1;stroke:none;stroke-width:3;marker:none;visibility:visible;display:inline;overflow:visible;enable-background:accumulate;font-family:Sans;-inkscape-font-specification:Sans"
       d="m 100,407 0,50 50,0 0,-50 -50,0 z m 3,3 44,0 0,21.125 L 136.25,412 113.75,412 103,431.125 103,410 z m 13.5625,7.0625 16.875,0 8.40625,14.9375 -8.40625,14.9375 -16.875,0 L 108.15625,432 116.5625,417.0625 z m 8.4375,9.875 c -2.71615,0 -4.90625,2.27495 -4.90625,5.0625 0,2.78755 2.1901,5.0625 4.90625,5.0625 2.71615,0 4.90625,-2.27495 4.90625,-5.0625 0,-2.78755 -2.1901,-5.0625 -4.90625,-5.0625 z m -22,5.9375 10.75,19.125 22.5,0 10.75,-19.125 0,21.125 -44,0 0,-21.125 z"
       id="Navaid_DME"
       inkscape:connector-curvature="0" />
    <path
       style="font-size:medium;font-style:normal;font-variant:normal;font-weight:normal;font-stretch:normal;text-indent:0;text-align:start;text-decoration:none;line-height:normal;letter-spacing:normal;word-spacing:normal;text-transform:none;direction:ltr;block-progression:tb;writing-mode:lr-tb;text-anchor:start;baseline-shift:baseline;color:#000000;fill:#00ffff;fill-opacity:1;fill-rule:nonzero;stroke:#00ffff;stroke-width:3;marker:none;visibility:visible;display:inline;overflow:visible;enable-background:accumulate;font-family:Sans;-inkscape-font-specification:Sans"
       d="m 29.350585,501.96833 17.53125,-30.35156 17.53125,30.35156 2.92969,0.5625 -19.47656,-33.75 c -0.20902,-0.36436 -0.63568,-0.5919 -1.05469,-0.5625 -0.37238,0.0203 -0.72813,0.23922 -0.91406,0.5625 l -19.476568,33.75 z"
       id="Navaid_Height"
       inkscape:connector-curvature="0"
       sodipodi:nodetypes="ccccccccc" />
    <path
       style="font-size:medium;font-style:normal;font-variant:normal;font-weight:normal;font-stretch:normal;text-indent:0;text-align:start;text-decoration:none;line-height:normal;letter-spacing:normal;word-spacing:normal;text-transform:none;direction:ltr;block-progression:tb;writing-mode:lr-tb;text-anchor:start;baseline-shift:baseline;color:#000000;fill:#00ffff;fill-opacity:1;fill-rule:nonzero;stroke:#00ffff;stroke-width:3;marker:none;visibility:visible;display:inline;overflow:visible;enable-background:accumulate;font-family:Sans;-inkscape-font-specification:Sans"
       d="m 114.9375,468.1875 c -0.37238,0.0203 -0.72032,0.23922 -0.90625,0.5625 l -19.5,33.75 2.9375,-0.5625 L 115,471.59375 l 8.6875,15.0625 -9.15625,15.84375 2.9375,-0.5625 L 125,488.90625 132.53125,501.9375 135.46875,502.5 126.3125,486.625 135,471.59375 152.53125,501.9375 155.46875,502.5 136,468.75 c -0.20902,-0.36436 -0.64349,-0.5919 -1.0625,-0.5625 -0.37238,0.0203 -0.72032,0.23922 -0.90625,0.5625 L 125,484.375 116,468.75 c -0.20902,-0.36436 -0.64349,-0.5919 -1.0625,-0.5625 z"
       id="Navaid_Height2"
       inkscape:connector-curvature="0" />
    <text
       xml:space="preserve"
       style="font-size:12px;font-style:normal;font-weight:normal;line-height:125%;letter-spacing:0px;word-spacing:0px;fill:#000000;fill-opacity:1;stroke:none;font-family:Sans"
       x="248.35156"
       y="18.305664"
       id="text3992"
       sodipodi:linespacing="125%"><tspan
         id="tspan3994"
         sodipodi:role="line"
         x="248.35156"
         y="18.305664">comm</tspan></text>
    <text
       sodipodi:linespacing="125%"
       id="text3996"
       y="19.503906"
       x="168.625"
       style="font-size:12px;font-style:normal;font-weight:normal;line-height:125%;letter-spacing:0px;word-spacing:0px;fill:#000000;fill-opacity:1;stroke:none;font-family:Sans"
       xml:space="preserve"><tspan
         y="19.503906"
         x="168.625"
         sodipodi:role="line"
         id="tspan3998">Surface</tspan></text>
    <path
       inkscape:connector-curvature="0"
       id="Airport_0010"
       d="m 47.08,155 0,3.68 c -5.318406,0.83296 -9.587238,5.04656 -10.42,10.4 l -3.66,0 0,3.84 3.66,0 c 0.832762,5.35342 5.101594,9.56704 10.42,10.4 l 0,3.68 3.84,0 0,-3.68 c 5.318413,-0.83296 9.587238,-5.04658 10.42,-10.4 l 3.66,0 0,-3.84 -3.66,0 c -0.832762,-5.35344 -5.101587,-9.56704 -10.42,-10.4 l 0,-3.68 -3.84,0 z m 1.92,7.32 c 4.90583,0 8.78,3.89498 8.78,8.68 0,4.78502 -3.87417,8.68 -8.78,8.68 -4.905818,0 -8.8,-3.89498 -8.8,-8.68 0,-4.78502 3.894182,-8.68 8.8,-8.68 z"
       style="font-size:medium;font-style:normal;font-variant:normal;font-weight:normal;font-stretch:normal;text-indent:0;text-align:start;text-decoration:none;line-height:normal;letter-spacing:normal;word-spacing:normal;text-transform:none;direction:ltr;block-progression:tb;writing-mode:lr-tb;text-anchor:start;baseline-shift:baseline;color:#000000;fill:#ff00ff;fill-opacity:1;stroke:none;stroke-width:1;marker:none;visibility:visible;display:inline;overflow:visible;enable-background:accumulate;font-family:Sans;-inkscape-font-specification:Sans" />
    <path
       sodipodi:nodetypes="ccccccccccccccccc"
       style="font-size:medium;font-style:normal;font-variant:normal;font-weight:normal;font-stretch:normal;text-indent:0;text-align:start;text-decoration:none;line-height:normal;letter-spacing:normal;word-spacing:normal;text-transform:none;direction:ltr;block-progression:tb;writing-mode:lr-tb;text-anchor:start;baseline-shift:baseline;color:#000000;fill:#ff00ff;fill-opacity:1;stroke:none;stroke-width:1;marker:none;visibility:visible;display:inline;overflow:visible;enable-background:accumulate;font-family:Sans;-inkscape-font-specification:Sans"
       d="m 48.961836,217.5 0,3.68 c -5.318407,0.83296 -9.587239,5.04656 -10.42,10.4 l -3.66,0 0,3.84 3.66,0 c 0.832761,5.35343 5.101593,9.56704 10.42,10.4 l 0,3.68 3.84,0 0,-3.68 c 5.318413,-0.83296 9.587239,-5.04657 10.42,-10.4 l 3.66,0 0,-3.84 -3.66,0 c -0.832761,-5.35344 -5.101587,-9.56704 -10.42,-10.4 l 0,-3.68 z"
       id="Airport_0110"
       inkscape:connector-curvature="0" />
    <path
       inkscape:connector-curvature="0"
       id="Airport_0111"
       d="m 48.521837,350.50002 0,3.565 c -5.152206,0.80693 -9.287637,4.88885 -10.094375,10.075 l -3.545625,0 0,3.72 3.545625,0 c 0.806738,5.18613 4.942169,9.26807 10.094375,10.075 l 0,3.565 3.72,0 0,-3.565 c 5.152213,-0.80693 9.287638,-4.88887 10.094376,-10.075 l 3.545625,0 0,-3.72 -3.545625,0 c -0.806738,-5.18615 -4.942163,-9.26807 -10.094376,-10.075 l 0,-3.565 z"
       style="font-size:medium;font-style:normal;font-variant:normal;font-weight:normal;font-stretch:normal;text-indent:0;text-align:start;text-decoration:none;line-height:normal;letter-spacing:normal;word-spacing:normal;text-transform:none;direction:ltr;block-progression:tb;writing-mode:lr-tb;text-anchor:start;baseline-shift:baseline;color:#000000;fill:#00ffff;fill-opacity:1;stroke:none;stroke-width:1;stroke-miterlimit:4;stroke-dasharray:none;marker:none;visibility:visible;display:inline;overflow:visible;enable-background:accumulate;font-family:Sans;-inkscape-font-specification:Sans"
       sodipodi:nodetypes="ccccccccccccccccc" />
    <path
       inkscape:connector-curvature="0"
       id="Airport_1011"
       d="m 109.88184,278.5 0,5.75 c -8.31001,1.30149 -14.980062,7.88525 -16.281252,16.25 l -5.71875,0 0,6 5.71875,0 c 1.30119,8.36473 7.971242,14.9485 16.281252,16.25 l 0,5.75 6,0 0,-5.75 c 8.31002,-1.3015 14.98006,-7.88527 16.28125,-16.25 l 5.71875,0 0,-6 -5.71875,0 c -1.30119,-8.36475 -7.97123,-14.94851 -16.28125,-16.25 l 0,-5.75 -6,0 z m 3,11.4375 c 7.66536,0 13.71875,6.08589 13.71875,13.5625 0,7.4766 -6.05339,13.5625 -13.71875,13.5625 -7.66534,0 -13.750002,-6.0859 -13.750002,-13.5625 0,-7.47661 6.084662,-13.5625 13.750002,-13.5625 z"
       style="font-size:medium;font-style:normal;font-variant:normal;font-weight:normal;font-stretch:normal;text-indent:0;text-align:start;text-decoration:none;line-height:normal;letter-spacing:normal;word-spacing:normal;text-transform:none;direction:ltr;block-progression:tb;writing-mode:lr-tb;text-anchor:start;baseline-shift:baseline;color:#000000;fill:#00ffff;fill-opacity:1;stroke:#000000;stroke-width:1;stroke-miterlimit:4;stroke-dasharray:none;marker:none;visibility:visible;display:inline;overflow:visible;enable-background:accumulate;font-family:Sans;-inkscape-font-specification:Sans" />
    <path
       style="font-size:medium;font-style:normal;font-variant:normal;font-weight:normal;font-stretch:normal;text-indent:0;text-align:start;text-decoration:none;line-height:normal;letter-spacing:normal;word-spacing:normal;text-transform:none;direction:ltr;block-progression:tb;writing-mode:lr-tb;text-anchor:start;baseline-shift:baseline;color:#000000;fill:#00ffff;fill-opacity:1;stroke:none;stroke-width:1;marker:none;visibility:visible;display:inline;overflow:visible;enable-background:accumulate;font-family:Sans;-inkscape-font-specification:Sans"
       d="m 48.961836,283.5 0,3.68 c -5.318413,0.83296 -9.58724,5.04656 -10.42,10.4 l -3.66,0 0,3.84 3.66,0 c 0.83276,5.35343 5.101587,9.56704 10.42,10.4 l 0,3.68 3.84,0 0,-3.68 c 5.318413,-0.83296 9.58724,-5.04657 10.42,-10.4 l 3.66,0 0,-3.84 -3.66,0 c -0.83276,-5.35344 -5.101587,-9.56704 -10.42,-10.4 l 0,-3.68 -3.84,0 z m 1.92,7.32 c 4.905827,0 8.78,3.89497 8.78,8.68 0,4.78503 -3.874173,8.68 -8.78,8.68 -4.905813,0 -8.8,-3.89497 -8.8,-8.68 0,-4.78503 3.894187,-8.68 8.8,-8.68 z"
       id="Airport_0011"
       inkscape:connector-curvature="0" />
    <text
       sodipodi:linespacing="125%"
       id="text3176"
       y="373.97363"
       x="166.43652"
       style="font-size:12px;font-style:normal;font-weight:normal;line-height:125%;letter-spacing:0px;word-spacing:0px;fill:#000000;fill-opacity:1;stroke:none;font-family:Sans"
       xml:space="preserve"><tspan
         id="tspan3178"
         y="373.97363"
         x="166.43652"
         sodipodi:role="line">hard</tspan></text>
    <text
       sodipodi:linespacing="125%"
       id="text3180"
       y="241.62793"
       x="248.69141"
       style="font-size:12px;font-style:normal;font-weight:normal;line-height:125%;letter-spacing:0px;word-spacing:0px;fill:#000000;fill-opacity:1;stroke:none;font-family:Sans"
       xml:space="preserve"><tspan
         id="tspan3182"
         y="241.62793"
         x="248.69141"
         sodipodi:role="line">tower</tspan></text>
    <text
       sodipodi:linespacing="125%"
       id="text3180-7"
       y="175.62793"
       x="248.69141"
       style="font-size:12px;font-style:normal;font-weight:normal;line-height:125%;letter-spacing:0px;word-spacing:0px;fill:#000000;fill-opacity:1;stroke:none;font-family:Sans"
       xml:space="preserve"><tspan
         id="tspan3182-2"
         y="175.62793"
         x="248.69141"
         sodipodi:role="line">tower</tspan></text>
    <text
       xml:space="preserve"
       style="font-size:12px;font-style:normal;font-weight:normal;line-height:125%;letter-spacing:0px;word-spacing:0px;fill:#000000;fill-opacity:1;stroke:none;font-family:Sans"
       x="309.47656"
       y="373.62793"
       id="text3944-7"
       sodipodi:linespacing="125%"><tspan
         sodipodi:role="line"
         x="309.47656"
         y="373.62793"
         id="tspan3172-2">center</tspan></text>
    <text
       xml:space="preserve"
       style="font-size:12px;font-style:normal;font-weight:normal;line-height:125%;letter-spacing:0px;word-spacing:0px;fill:#000000;fill-opacity:1;stroke:none;font-family:Sans"
       x="168.76562"
       y="307.97363"
       id="text3924-0"
       sodipodi:linespacing="125%"><tspan
         sodipodi:role="line"
         id="tspan3926-7"
         x="168.76562"
         y="307.97363">soft</tspan></text>
    <text
       sodipodi:linespacing="125%"
       id="text3180-7-9"
       y="42.775391"
       x="247.92383"
       style="font-size:12px;font-style:normal;font-weight:normal;line-height:125%;letter-spacing:0px;word-spacing:0px;fill:#000000;fill-opacity:1;stroke:none;font-family:Sans"
       xml:space="preserve"><tspan
         id="tspan3182-2-0"
         y="42.775391"
         x="247.92383"
         sodipodi:role="line">none</tspan></text>
    <text
       sodipodi:linespacing="125%"
       id="text3180-7-9-8"
       y="108.77539"
       x="247.92383"
       style="font-size:12px;font-style:normal;font-weight:normal;line-height:125%;letter-spacing:0px;word-spacing:0px;fill:#000000;fill-opacity:1;stroke:none;font-family:Sans"
       xml:space="preserve"><tspan
         id="tspan3182-2-0-4"
         y="108.77539"
         x="247.92383"
         sodipodi:role="line">none</tspan></text>
    <text
       xml:space="preserve"
       style="font-size:12px;font-style:normal;font-weight:normal;line-height:125%;letter-spacing:0px;word-spacing:0px;fill:#000000;fill-opacity:1;stroke:none;font-family:Sans"
       x="248.69141"
       y="373.62793"
       id="text3298"
       sodipodi:linespacing="125%"><tspan
         sodipodi:role="line"
         x="248.69141"
         y="373.62793"
         id="tspan3300">tower</tspan></text>
    <text
       xml:space="preserve"
       style="font-size:12px;font-style:normal;font-weight:normal;line-height:125%;letter-spacing:0px;word-spacing:0px;fill:#000000;fill-opacity:1;stroke:none;font-family:Sans"
       x="248.69141"
       y="307.62793"
       id="text3302"
       sodipodi:linespacing="125%"><tspan
         sodipodi:role="line"
         x="248.69141"
         y="307.62793"
         id="tspan3304">tower</tspan></text>
  </g>
</svg>
